<svg width="24" height="25" viewBox="0 0 24 25" fill="none" xmlns="http://www.w3.org/2000/svg">
<path d="M3.75 11H20.25V19.25C20.25 19.4489 20.171 19.6397 20.0303 19.7803C19.8897 19.921 19.6989 20 19.5 20H4.5C4.30109 20 4.11032 19.921 3.96967 19.7803C3.82902 19.6397 3.75 19.4489 3.75 19.25V11Z" fill="#EF4056" fill-opacity="0.2" stroke="#EF4056" stroke-width="1.25" stroke-linecap="round" stroke-linejoin="round"/>
<path d="M3.74999 11.0002L19.6875 6.72517L18.9094 3.8283C18.8844 3.73296 18.8407 3.64355 18.7808 3.56533C18.7208 3.4871 18.6459 3.42162 18.5603 3.37273C18.4748 3.32384 18.3803 3.29251 18.2825 3.28059C18.1846 3.26866 18.0854 3.27638 17.9906 3.3033L3.50624 7.18455C3.41072 7.2096 3.32109 7.25327 3.24249 7.31306C3.16389 7.37284 3.09787 7.44756 3.04822 7.53292C2.99857 7.61829 2.96627 7.71262 2.95316 7.8105C2.94006 7.90838 2.94642 8.00788 2.97187 8.1033L3.74999 11.0002Z" fill="#EF4056" fill-opacity="0.2" stroke="#EF4056" stroke-width="1.25" stroke-linecap="round" stroke-linejoin="round"/>
<path d="M12.1968 4.84985L16.7905 7.50298" stroke="#EF4056" stroke-width="1.25" stroke-linecap="round" stroke-linejoin="round"/>
<path d="M5.68115 6.60327L10.2655 9.2564" stroke="#EF4056" stroke-width="1.25" stroke-linecap="round" stroke-linejoin="round"/>
</svg>
