<svg width="24" height="25" viewBox="0 0 24 25" fill="none" xmlns="http://www.w3.org/2000/svg">
<path d="M3.75 11H20.25V19.25C20.25 19.4489 20.171 19.6397 20.0303 19.7803C19.8897 19.921 19.6989 20 19.5 20H4.5C4.30109 20 4.11032 19.921 3.96967 19.7803C3.82902 19.6397 3.75 19.4489 3.75 19.25V11Z" stroke="white" stroke-width="1.25" stroke-linecap="round" stroke-linejoin="round"/>
<path d="M3.74999 11.0004L19.6875 6.72541L18.9094 3.82854C18.8844 3.7332 18.8407 3.6438 18.7808 3.56557C18.7208 3.48735 18.6459 3.42187 18.5603 3.37297C18.4748 3.32408 18.3803 3.29275 18.2825 3.28083C18.1846 3.26891 18.0854 3.27663 17.9906 3.30354L3.50624 7.18479C3.41072 7.20985 3.32109 7.25352 3.24249 7.3133C3.16389 7.37309 3.09787 7.4478 3.04822 7.53317C2.99857 7.61853 2.96627 7.71286 2.95316 7.81074C2.94006 7.90862 2.94642 8.00812 2.97187 8.10354L3.74999 11.0004Z" stroke="white" stroke-width="1.25" stroke-linecap="round" stroke-linejoin="round"/>
<path d="M12.1968 4.84961L16.7905 7.50273" stroke="white" stroke-width="1.25" stroke-linecap="round" stroke-linejoin="round"/>
<path d="M5.68115 6.60352L10.2655 9.25664" stroke="white" stroke-width="1.25" stroke-linecap="round" stroke-linejoin="round"/>
</svg>
