<svg width="66" height="24" viewBox="0 0 66 24" fill="none" xmlns="http://www.w3.org/2000/svg">
<path d="M12 21C16.9706 21 21 16.9706 21 12C21 7.02944 16.9706 3 12 3C7.02944 3 3 7.02944 3 12C3 16.9706 7.02944 21 12 21Z" stroke="#EF4056" stroke-width="1.25" stroke-linecap="round" stroke-linejoin="round"/>
<path d="M8.625 11.25C9.24632 11.25 9.75 10.7463 9.75 10.125C9.75 9.50368 9.24632 9 8.625 9C8.00368 9 7.5 9.50368 7.5 10.125C7.5 10.7463 8.00368 11.25 8.625 11.25Z" fill="#EF4056"/>
<path d="M15.375 11.25C15.9963 11.25 16.5 10.7463 16.5 10.125C16.5 9.50368 15.9963 9 15.375 9C14.7537 9 14.25 9.50368 14.25 10.125C14.25 10.7463 14.7537 11.25 15.375 11.25Z" fill="#EF4056"/>
<path d="M15.8996 14.25C15.5031 14.9331 14.9342 15.5 14.2498 15.8941C13.5653 16.2882 12.7894 16.4956 11.9996 16.4956C11.2098 16.4956 10.4339 16.2882 9.74945 15.8941C9.06501 15.5 8.49609 14.9331 8.09961 14.25" stroke="#EF4056" stroke-width="1.25" stroke-linecap="round" stroke-linejoin="round"/>
<path d="M54 21C58.9706 21 63 16.9706 63 12C63 7.02944 58.9706 3 54 3C49.0294 3 45 7.02944 45 12C45 16.9706 49.0294 21 54 21Z" stroke="#EF4056" stroke-width="1.25" stroke-miterlimit="10"/>
<path d="M50.625 11.25C51.2463 11.25 51.75 10.7463 51.75 10.125C51.75 9.50368 51.2463 9 50.625 9C50.0037 9 49.5 9.50368 49.5 10.125C49.5 10.7463 50.0037 11.25 50.625 11.25Z" fill="#EF4056"/>
<path d="M57.375 11.25C57.9963 11.25 58.5 10.7463 58.5 10.125C58.5 9.50368 57.9963 9 57.375 9C56.7537 9 56.25 9.50368 56.25 10.125C56.25 10.7463 56.7537 11.25 57.375 11.25Z" fill="#EF4056"/>
<path d="M50.625 11.25C51.2463 11.25 51.75 10.7463 51.75 10.125C51.75 9.50368 51.2463 9 50.625 9C50.0037 9 49.5 9.50368 49.5 10.125C49.5 10.7463 50.0037 11.25 50.625 11.25Z" fill="#EF4056"/>
<path d="M57.375 11.25C57.9963 11.25 58.5 10.7463 58.5 10.125C58.5 9.50368 57.9963 9 57.375 9C56.7537 9 56.25 9.50368 56.25 10.125C56.25 10.7463 56.7537 11.25 57.375 11.25Z" fill="#EF4056"/>
<path d="M57.8996 16.5C57.5031 15.817 56.9342 15.25 56.2498 14.8559C55.5653 14.4618 54.7894 14.2544 53.9996 14.2544C53.2098 14.2544 52.4339 14.4618 51.7494 14.8559C51.065 15.25 50.4961 15.817 50.0996 16.5" stroke="#EF4056" stroke-width="1.25" stroke-linecap="round" stroke-linejoin="round"/>
</svg>
