<svg width="24" height="25" viewBox="0 0 24 25" fill="none" xmlns="http://www.w3.org/2000/svg">
<path d="M13.8783 3.86347L13.8787 3.86374L19.6386 7.89364C20.0755 8.19949 20.5005 8.71053 20.817 9.31663C21.1334 9.92273 21.31 10.5642 21.31 11.1002V17.8802C21.31 20.0436 19.5534 21.8002 17.39 21.8002H6.60999C4.44856 21.8002 2.68999 20.0356 2.68999 17.8702V10.9702C2.68999 10.474 2.84953 9.86526 3.138 9.27939C3.42627 8.6939 3.81349 8.19181 4.21051 7.88213L4.21066 7.88202L9.21873 3.97352C9.21903 3.97329 9.21932 3.97306 9.21962 3.97283C10.4872 2.99139 12.5599 2.93975 13.8783 3.86347ZM12 19.9502C12.7966 19.9502 13.45 19.2968 13.45 18.5002V15.5002C13.45 14.7036 12.7966 14.0502 12 14.0502C11.2034 14.0502 10.55 14.7036 10.55 15.5002V18.5002C10.55 19.2968 11.2034 19.9502 12 19.9502Z" fill="#EF4056" fill-opacity="0.2" stroke="#EF4056" stroke-width="1.4"/>
</svg>
