<svg width="24" height="25" viewBox="0 0 24 25" fill="none" xmlns="http://www.w3.org/2000/svg">
<path d="M13.8783 3.86335L13.8787 3.86362L19.6386 7.89352C20.0755 8.19937 20.5005 8.7104 20.817 9.31651C21.1334 9.92261 21.31 10.564 21.31 11.1001V17.8801C21.31 20.0435 19.5534 21.8001 17.39 21.8001H6.60999C4.44856 21.8001 2.68999 20.0354 2.68999 17.8701V10.9701C2.68999 10.4738 2.84953 9.86514 3.138 9.27927C3.42627 8.69378 3.81349 8.19169 4.21051 7.88201L4.21066 7.88189L9.21873 3.97339C9.21903 3.97317 9.21932 3.97294 9.21962 3.97271C10.4872 2.99127 12.5599 2.93963 13.8783 3.86335ZM12 19.9501C12.7966 19.9501 13.45 19.2967 13.45 18.5001V15.5001C13.45 14.7035 12.7966 14.0501 12 14.0501C11.2034 14.0501 10.55 14.7035 10.55 15.5001V18.5001C10.55 19.2967 11.2034 19.9501 12 19.9501Z" stroke="white" stroke-width="1.4"/>
</svg>
