<svg width="20" height="21" viewBox="0 0 20 21" fill="none" xmlns="http://www.w3.org/2000/svg">
<path d="M8.05687 2.14612L7.87575 2.18808L8.03529 2.28354L9.96309 3.43699L10.0016 3.46005L10.0402 3.43696L11.9645 2.28343L12.1237 2.18794L11.9428 2.14603C11.3185 2.00143 10.6681 1.925 10 1.925C9.33176 1.925 8.68128 2.00145 8.05687 2.14612ZM6.28285 2.80823L6.24779 2.78726L6.21116 2.80533C5.295 3.2573 4.47127 3.86804 3.77588 4.60159L3.75021 4.62867L3.75632 4.66547L4.34289 8.19932L4.3502 8.24334L4.39236 8.25792L6.4361 8.96478L6.47306 8.97756L6.5047 8.95458L9.29608 6.92656L9.327 6.90409V6.86588V4.6721V4.62957L9.29051 4.60774L6.28285 2.80823ZM2.66286 6.3223L2.628 6.11229L2.52352 6.29777C1.91415 7.37964 1.53279 8.60713 1.44465 9.91486L1.43121 10.1142L1.57251 9.97293L3.00006 8.54539L3.02733 8.51812L3.02102 8.48008L2.66286 6.3223ZM1.56833 11.8864L1.54091 11.9138L1.54743 11.952C1.74027 13.0826 2.15444 14.1378 2.74372 15.0712L2.76428 15.1038L2.80273 15.1061L6.09648 15.2999L6.14127 15.3025L6.16477 15.2643L7.13373 13.689L7.15189 13.6595L7.14118 13.6265L6.05845 10.2942L6.04691 10.2587L6.01164 10.2465L3.97301 9.54132L3.92865 9.52598L3.89546 9.55917L1.56833 11.8864ZM4.09453 16.5344L3.89259 16.5225L4.03797 16.6632C4.78689 17.3878 5.66755 17.9772 6.64062 18.3919L6.81113 18.4646L6.73913 18.2938L6.06395 16.6923L6.04582 16.6493L5.99925 16.6465L4.09453 16.5344ZM8.46079 18.9024L8.47669 18.9402L8.51701 18.9472C8.99875 19.0312 9.49426 19.075 10 19.075C10.535 19.075 11.0586 19.026 11.5666 18.9323L11.6084 18.9245L11.6233 18.8848L12.6628 16.1046L12.6752 16.0715L12.6576 16.0408L11.7456 14.4599L11.7239 14.4224H11.6806H8.3094H8.26748L8.24552 14.4581L7.28181 16.025L7.26159 16.0579L7.27658 16.0934L8.46079 18.9024ZM13.2892 18.284L13.2276 18.4487L13.3891 18.3792C14.2169 18.0227 14.9773 17.5395 15.6458 16.9542L15.7827 16.8343L15.6011 16.8229L13.9315 16.7182L13.876 16.7148L13.8566 16.7668L13.2892 18.284ZM16.8873 15.551L16.9286 15.5535L16.9528 15.5201C17.6649 14.5354 18.1731 13.3934 18.4152 12.1561L18.4225 12.1189L18.3969 12.091L16.0849 9.5706L16.0516 9.53433L16.0051 9.55042L13.9924 10.2465L13.9571 10.2587L13.9456 10.2942L12.8589 13.6386L12.8486 13.6704L12.8652 13.6993L13.8025 15.324L13.8226 15.3588L13.8628 15.3614L16.8873 15.551ZM18.4347 10.1352L18.5749 10.288L18.5649 10.0809C18.499 8.71196 18.1121 7.42708 17.4778 6.30007L17.3734 6.11467L17.3384 6.32453L16.9755 8.50177L16.9695 8.53785L16.9942 8.5648L18.4347 10.1352ZM16.246 4.66791L16.2521 4.6311L16.2264 4.604C15.5302 3.869 14.7051 3.25717 13.7875 2.80464L13.7508 2.78656L13.7157 2.80758L10.7134 4.60735L10.677 4.6292V4.67168V6.86588V6.9041L10.7079 6.92656L13.4993 8.95458L13.531 8.97756L13.5679 8.96478L15.6076 8.2594L15.6497 8.24483L15.6571 8.20085L16.246 4.66791ZM7.42266 9.95642L7.37857 9.98845L7.39541 10.0403L8.36377 13.0206L8.38061 13.0724H8.4351H11.5689H11.6234L11.6402 13.0206L12.6086 10.0403L12.6255 9.98845L12.5814 9.95642L10.0461 8.11439L10.002 8.08236L9.95792 8.11439L7.42266 9.95642ZM0.075 10.5C0.075 5.01857 4.51857 0.575 10 0.575C15.4814 0.575 19.925 5.01857 19.925 10.5C19.925 15.9814 15.4814 20.425 10 20.425C4.51857 20.425 0.075 15.9814 0.075 10.5Z" fill="white" stroke="black" stroke-width="0.15"/>
</svg>
