<svg width="24" height="25" viewBox="0 0 24 25" fill="none" xmlns="http://www.w3.org/2000/svg">
<ellipse cx="12" cy="12.5" rx="10" ry="9.5" fill="#EF4056" fill-opacity="0.2"/>
<path d="M10.0569 4.14612L9.87575 4.18808L10.0353 4.28354L11.9631 5.43699L12.0016 5.46005L12.0402 5.43696L13.9645 4.28343L14.1237 4.18794L13.9428 4.14603C13.3185 4.00143 12.6681 3.925 12 3.925C11.3318 3.925 10.6813 4.00145 10.0569 4.14612ZM8.28285 4.80823L8.24779 4.78726L8.21116 4.80533C7.295 5.2573 6.47127 5.86804 5.77588 6.60159L5.75021 6.62867L5.75632 6.66547L6.34289 10.1993L6.3502 10.2433L6.39236 10.2579L8.4361 10.9648L8.47306 10.9776L8.5047 10.9546L11.2961 8.92656L11.327 8.90409V8.86588V6.6721V6.62957L11.2905 6.60774L8.28285 4.80823ZM4.66286 8.3223L4.628 8.11229L4.52352 8.29777C3.91415 9.37964 3.53279 10.6071 3.44465 11.9149L3.43121 12.1142L3.57251 11.9729L5.00006 10.5454L5.02733 10.5181L5.02102 10.4801L4.66286 8.3223ZM3.56833 13.8864L3.54091 13.9138L3.54743 13.952C3.74027 15.0826 4.15444 16.1378 4.74372 17.0712L4.76428 17.1038L4.80273 17.1061L8.09648 17.2999L8.14127 17.3025L8.16477 17.2643L9.13373 15.689L9.15189 15.6595L9.14118 15.6265L8.05845 12.2942L8.04691 12.2587L8.01164 12.2465L5.97301 11.5413L5.92865 11.526L5.89546 11.5592L3.56833 13.8864ZM6.09453 18.5344L5.89259 18.5225L6.03797 18.6632C6.78689 19.3878 7.66755 19.9772 8.64062 20.3919L8.81113 20.4646L8.73913 20.2938L8.06395 18.6923L8.04582 18.6493L7.99925 18.6465L6.09453 18.5344ZM10.4608 20.9024L10.4767 20.9402L10.517 20.9472C10.9988 21.0312 11.4943 21.075 12 21.075C12.535 21.075 13.0586 21.026 13.5666 20.9323L13.6084 20.9245L13.6233 20.8848L14.6628 18.1046L14.6752 18.0715L14.6576 18.0408L13.7456 16.4599L13.7239 16.4224H13.6806H10.3094H10.2675L10.2455 16.4581L9.28181 18.025L9.26159 18.0579L9.27658 18.0934L10.4608 20.9024ZM15.2892 20.284L15.2276 20.4487L15.3891 20.3792C16.2169 20.0227 16.9773 19.5395 17.6458 18.9542L17.7827 18.8343L17.6011 18.8229L15.9315 18.7182L15.876 18.7148L15.8566 18.7668L15.2892 20.284ZM18.8873 17.551L18.9286 17.5535L18.9528 17.5201C19.6649 16.5354 20.1731 15.3934 20.4152 14.1561L20.4225 14.1189L20.3969 14.091L18.0849 11.5706L18.0516 11.5343L18.0051 11.5504L15.9924 12.2465L15.9571 12.2587L15.9456 12.2942L14.8589 15.6386L14.8486 15.6704L14.8652 15.6993L15.8025 17.324L15.8226 17.3588L15.8628 17.3614L18.8873 17.551ZM20.4347 12.1352L20.5749 12.288L20.5649 12.0809C20.499 10.712 20.1121 9.42708 19.4778 8.30007L19.3734 8.11467L19.3384 8.32453L18.9755 10.5018L18.9695 10.5378L18.9942 10.5648L20.4347 12.1352ZM18.246 6.66791L18.2521 6.6311L18.2264 6.604C17.5302 5.869 16.7051 5.25717 15.7875 4.80464L15.7508 4.78656L15.7157 4.80758L12.7134 6.60735L12.677 6.6292V6.67168V8.86588V8.9041L12.7079 8.92656L15.4993 10.9546L15.531 10.9776L15.5679 10.9648L17.6076 10.2594L17.6497 10.2448L17.6571 10.2009L18.246 6.66791ZM9.42266 11.9564L9.37857 11.9885L9.39541 12.0403L10.3638 15.0206L10.3806 15.0724H10.4351H13.5689H13.6234L13.6402 15.0206L14.6086 12.0403L14.6255 11.9885L14.5814 11.9564L12.0461 10.1144L12.002 10.0824L11.9579 10.1144L9.42266 11.9564ZM2.075 12.5C2.075 7.01857 6.51857 2.575 12 2.575C17.4814 2.575 21.925 7.01857 21.925 12.5C21.925 17.9814 17.4814 22.425 12 22.425C6.51857 22.425 2.075 17.9814 2.075 12.5Z" fill="#EF4056" stroke="#553237" stroke-width="0.15"/>
</svg>
