<svg width="28" height="28" viewBox="0 0 28 28" fill="none" xmlns="http://www.w3.org/2000/svg">
<path d="M28 14C28 21.732 21.732 28 14 28C6.26801 28 0 21.732 0 14C0 6.26801 6.26801 0 14 0C21.732 0 28 6.26801 28 14Z" fill="#EF4056"/>
<path d="M19.8164 13.6049L11.455 8.49163C11.3846 8.44821 11.3039 8.42435 11.2212 8.42253C11.1386 8.4207 11.0569 8.44096 10.9847 8.48122C10.9124 8.52149 10.8522 8.58029 10.8103 8.65158C10.7684 8.72286 10.7462 8.80404 10.7461 8.88674V19.1133C10.7462 19.196 10.7684 19.2772 10.8103 19.3485C10.8522 19.4198 10.9124 19.4786 10.9847 19.5188C11.0569 19.5591 11.1386 19.5794 11.2212 19.5775C11.3039 19.5757 11.3846 19.5518 11.455 19.5084L19.8164 14.3951C19.885 14.3545 19.9419 14.2968 19.9815 14.2275C20.021 14.1582 20.0418 14.0798 20.0418 14C20.0418 13.9203 20.021 13.8419 19.9815 13.7726C19.9419 13.7033 19.885 13.6455 19.8164 13.6049Z" fill="white"/>
</svg>
