<svg width="136" height="28" viewBox="0 0 136 28" fill="none" xmlns="http://www.w3.org/2000/svg">
<path d="M28 14C28 21.732 21.732 28 14 28C6.26801 28 0 21.732 0 14C0 6.26801 6.26801 0 14 0C21.732 0 28 6.26801 28 14Z" fill="#EF4056"/>
<path d="M19.8164 13.6049L11.455 8.49163C11.3846 8.44821 11.3039 8.42435 11.2212 8.42253C11.1386 8.4207 11.0569 8.44096 10.9847 8.48122C10.9124 8.52149 10.8522 8.58029 10.8103 8.65158C10.7684 8.72286 10.7462 8.80404 10.7461 8.88674V19.1133C10.7462 19.196 10.7684 19.2772 10.8103 19.3485C10.8522 19.4198 10.9124 19.4786 10.9847 19.5188C11.0569 19.5591 11.1386 19.5794 11.2212 19.5775C11.3039 19.5757 11.3846 19.5518 11.455 19.5084L19.8164 14.3951C19.885 14.3545 19.9419 14.2968 19.9815 14.2275C20.021 14.1582 20.0418 14.0798 20.0418 14C20.0418 13.9203 20.021 13.8419 19.9815 13.7726C19.9419 13.7033 19.885 13.6455 19.8164 13.6049Z" fill="white"/>
<path d="M41.125 9.03125V18.1719H46.8906V19.5H39.7188V9.03125H41.125ZM55.3938 18.1719V19.5H50.4563V18.1719H52.2219V10.3594H50.4563V9.03125H55.3938V10.3594H53.6281V18.1719H55.3938ZM63.6313 13.7812H68.2406V18.0781C67.9906 18.349 67.6677 18.6146 67.2719 18.875C66.876 19.125 66.4177 19.3333 65.8969 19.5C65.3865 19.6562 64.824 19.7344 64.2094 19.7344C63.4177 19.7344 62.6885 19.5938 62.0219 19.3125C61.3552 19.0208 60.7719 18.625 60.2719 18.125C59.7719 17.625 59.3813 17.0469 59.1 16.3906C58.8292 15.724 58.6938 15.0156 58.6938 14.2656C58.6938 13.5156 58.8292 12.8125 59.1 12.1562C59.3813 11.4896 59.7719 10.9062 60.2719 10.4062C60.7719 9.90625 61.3552 9.51562 62.0219 9.23438C62.6885 8.94271 63.4177 8.79688 64.2094 8.79688C64.9698 8.79688 65.5896 8.90104 66.0688 9.10938C66.5583 9.31771 66.9854 9.58854 67.35 9.92188V11.4688C67.1208 11.3021 66.8604 11.1198 66.5688 10.9219C66.2875 10.724 65.9542 10.5521 65.5688 10.4062C65.1938 10.25 64.7406 10.1719 64.2094 10.1719C63.4281 10.1719 62.7302 10.349 62.1156 10.7031C61.501 11.0573 61.0167 11.5469 60.6625 12.1719C60.3083 12.7865 60.1313 13.4844 60.1313 14.2656C60.1313 15.0469 60.3083 15.7448 60.6625 16.3594C61.0167 16.974 61.501 17.4635 62.1156 17.8281C62.7302 18.1823 63.4281 18.3594 64.2094 18.3594C64.7406 18.3594 65.1677 18.3073 65.4906 18.2031C65.8135 18.0885 66.0688 17.9635 66.2563 17.8281C66.4438 17.6823 66.5948 17.5625 66.7094 17.4688L66.725 15.0312H63.6313V13.7812ZM72.7906 9.03125V13.4375H78.7594V9.03125H80.1656V19.5H78.7594V14.7656H72.7906V19.5H71.3844V9.03125H72.7906ZM91.7781 9.03125V10.3594H88.1688V19.4531H86.7625V10.3594H83.1531V9.03125H91.7781ZM97.6094 8.79688C98.224 8.79688 98.8281 8.875 99.4219 9.03125C100.026 9.17708 100.51 9.375 100.875 9.625V12.4531C100.427 12.1927 99.9844 11.9688 99.5469 11.7812C99.1094 11.5833 98.5938 11.4844 98 11.4844C97.6562 11.4844 97.3594 11.5365 97.1094 11.6406C96.8594 11.7448 96.7344 11.9167 96.7344 12.1562C96.7344 12.4167 96.8854 12.6146 97.1875 12.75C97.4896 12.875 97.8594 13.0208 98.2969 13.1875L99.4219 13.6094C100.182 13.901 100.719 14.2969 101.031 14.7969C101.354 15.2969 101.516 15.7969 101.516 16.2969C101.516 16.9635 101.323 17.5573 100.938 18.0781C100.552 18.5885 100.031 18.9948 99.375 19.2969C98.7188 19.5885 97.9844 19.7344 97.1719 19.7344C96.5469 19.7344 95.9271 19.625 95.3125 19.4062C94.6979 19.1875 94.1615 18.9167 93.7031 18.5938V15.7656C94.2031 16.1406 94.7396 16.4479 95.3125 16.6875C95.8958 16.9271 96.4792 17.0469 97.0625 17.0469C97.4271 17.0469 97.7188 17.0052 97.9375 16.9219C98.1667 16.8281 98.2812 16.6719 98.2812 16.4531C98.2812 16.2969 98.1979 16.1615 98.0312 16.0469C97.8646 15.9323 97.6406 15.8333 97.3594 15.75L95.875 15.2812C95.2917 15.0938 94.8385 14.8385 94.5156 14.5156C94.1927 14.1927 93.9688 13.8333 93.8438 13.4375C93.7188 13.0312 93.6562 12.6198 93.6562 12.2031C93.6562 11.4635 93.8438 10.8438 94.2188 10.3438C94.5938 9.83333 95.0833 9.44792 95.6875 9.1875C96.2917 8.92708 96.9323 8.79688 97.6094 8.79688ZM112.253 9.03125V11.6094H109.175V19.4531H106.253V11.6094H103.175V9.03125H112.253ZM118.975 8.875L123.819 19.5H120.412L119.897 18.0938H116.584L116.069 19.5H112.662L117.506 8.875H118.975ZM118.241 13.5938L117.444 15.75H119.037L118.241 13.5938ZM130.666 9.03125C131.197 9.03125 131.713 9.10417 132.213 9.25C132.723 9.39583 133.181 9.61979 133.588 9.92188C133.994 10.224 134.317 10.6042 134.556 11.0625C134.806 11.5208 134.931 12.0573 134.931 12.6719C134.931 13.4531 134.707 14.099 134.259 14.6094C133.822 15.1198 133.259 15.4688 132.572 15.6562L135.463 19.5H131.9L129.103 15.3438V19.5H126.181V9.03125H130.666ZM129.103 11.7656V13.7188C129.28 13.7812 129.468 13.8333 129.666 13.875C129.874 13.9167 130.093 13.9375 130.322 13.9375C130.78 13.9375 131.16 13.849 131.463 13.6719C131.775 13.4844 131.931 13.2031 131.931 12.8281C131.931 12.401 131.775 12.1198 131.463 11.9844C131.16 11.8385 130.78 11.7656 130.322 11.7656H129.103Z" fill="white"/>
</svg>
