<svg width="196" height="32" viewBox="0 0 196 32" fill="none" xmlns="http://www.w3.org/2000/svg">
<path d="M107 5H102.5C101.948 5 101.5 5.44772 101.5 6V26C101.5 26.5523 101.948 27 102.5 27H107C107.552 27 108 26.5523 108 26V6C108 5.44772 107.552 5 107 5Z" fill="white" stroke="white" stroke-width="2" stroke-linecap="round" stroke-linejoin="round"/>
<path d="M93.5 5H89C88.4477 5 88 5.44772 88 6V26C88 26.5523 88.4477 27 89 27H93.5C94.0523 27 94.5 26.5523 94.5 26V6C94.5 5.44772 94.0523 5 93.5 5Z" fill="white" stroke="white" stroke-width="2" stroke-linecap="round" stroke-linejoin="round"/>
<path d="M194.641 15.3719L186.278 9.99063C186.164 9.91813 186.033 9.87764 185.898 9.87343C185.764 9.86922 185.63 9.90143 185.512 9.96669C185.394 10.0319 185.296 10.1278 185.228 10.2442C185.16 10.3606 185.124 10.4933 185.125 10.6281V21.3719C185.124 21.5067 185.16 21.6394 185.228 21.7558C185.296 21.8722 185.394 21.9681 185.512 22.0333C185.63 22.0986 185.764 22.1308 185.898 22.1266C186.033 22.1224 186.164 22.0819 186.278 22.0094L194.641 16.6281C194.747 16.5616 194.835 16.469 194.896 16.3591C194.957 16.2492 194.989 16.1256 194.989 16C194.989 15.8744 194.957 15.7508 194.896 15.6409C194.835 15.531 194.747 15.4384 194.641 15.3719Z" fill="white"/>
<path d="M184.141 15.3719L175.778 9.99063C175.664 9.91813 175.533 9.87764 175.398 9.87343C175.264 9.86922 175.13 9.90143 175.012 9.96669C174.894 10.0319 174.796 10.1278 174.728 10.2442C174.66 10.3606 174.624 10.4933 174.625 10.6281V21.3719C174.624 21.5067 174.66 21.6394 174.728 21.7558C174.796 21.8722 174.894 21.9681 175.012 22.0333C175.13 22.0986 175.264 22.1308 175.398 22.1266C175.533 22.1224 175.664 22.0819 175.778 22.0094L184.141 16.6281C184.247 16.5616 184.335 16.469 184.396 16.3591C184.457 16.2492 184.489 16.1256 184.489 16C184.489 15.8744 184.457 15.7508 184.396 15.6409C184.335 15.531 184.247 15.4384 184.141 15.3719Z" fill="white"/>
<path d="M154.84 20V18.572H156.496V14.168H155.068V13.076C155.484 12.996 155.836 12.9 156.124 12.788C156.412 12.676 156.692 12.54 156.964 12.38H158.26V18.572H159.688V20H154.84ZM164.508 20.144C163.692 20.144 163.032 19.804 162.528 19.124C162.032 18.444 161.784 17.456 161.784 16.16C161.784 14.864 162.032 13.888 162.528 13.232C163.032 12.568 163.692 12.236 164.508 12.236C165.324 12.236 165.98 12.568 166.476 13.232C166.98 13.888 167.232 14.864 167.232 16.16C167.232 17.456 166.98 18.444 166.476 19.124C165.98 19.804 165.324 20.144 164.508 20.144ZM164.508 18.776C164.708 18.776 164.888 18.704 165.048 18.56C165.208 18.408 165.332 18.144 165.42 17.768C165.516 17.392 165.564 16.856 165.564 16.16C165.564 15.464 165.516 14.932 165.42 14.564C165.332 14.196 165.208 13.944 165.048 13.808C164.888 13.672 164.708 13.604 164.508 13.604C164.316 13.604 164.14 13.672 163.98 13.808C163.82 13.944 163.692 14.196 163.596 14.564C163.5 14.932 163.452 15.464 163.452 16.16C163.452 16.856 163.5 17.392 163.596 17.768C163.692 18.144 163.82 18.408 163.98 18.56C164.14 18.704 164.316 18.776 164.508 18.776Z" fill="white"/>
<path d="M1.35936 16.6281L9.72186 22.0094C9.83559 22.0819 9.96677 22.1224 10.1016 22.1266C10.2364 22.1308 10.3698 22.0986 10.4879 22.0333C10.6059 21.9681 10.7042 21.8722 10.7723 21.7558C10.8404 21.6394 10.8759 21.5067 10.875 21.3719L10.875 10.6281C10.8759 10.4933 10.8404 10.3606 10.7723 10.2442C10.7042 10.1278 10.6059 10.0319 10.4879 9.96669C10.3698 9.90143 10.2364 9.86922 10.1016 9.87343C9.96677 9.87764 9.83559 9.91813 9.72186 9.99062L1.35936 15.3719C1.2528 15.4384 1.16494 15.531 1.10402 15.6409C1.0431 15.7508 1.01114 15.8744 1.01114 16C1.01114 16.1256 1.0431 16.2492 1.10402 16.3591C1.16494 16.469 1.2528 16.5616 1.35936 16.6281Z" fill="white"/>
<path d="M11.8594 16.6281L20.2219 22.0094C20.3356 22.0819 20.4668 22.1224 20.6016 22.1266C20.7364 22.1308 20.8698 22.0986 20.9879 22.0333C21.1059 21.9681 21.2042 21.8722 21.2723 21.7558C21.3404 21.6394 21.3759 21.5067 21.375 21.3719L21.375 10.6281C21.3759 10.4933 21.3404 10.3606 21.2723 10.2442C21.2042 10.1278 21.1059 10.0319 20.9879 9.96669C20.8698 9.90143 20.7364 9.86922 20.6016 9.87343C20.4668 9.87764 20.3356 9.91813 20.2219 9.99062L11.8594 15.3719C11.7528 15.4384 11.6649 15.531 11.604 15.6409C11.5431 15.7508 11.5111 15.8744 11.5111 16C11.5111 16.1256 11.5431 16.2492 11.604 16.3591C11.6649 16.469 11.7528 16.5616 11.8594 16.6281Z" fill="white"/>
<path d="M28.84 20V18.572H30.496V14.168H29.068V13.076C29.484 12.996 29.836 12.9 30.124 12.788C30.412 12.676 30.692 12.54 30.964 12.38H32.26V18.572H33.688V20H28.84ZM38.5078 20.144C37.6918 20.144 37.0318 19.804 36.5278 19.124C36.0318 18.444 35.7838 17.456 35.7838 16.16C35.7838 14.864 36.0318 13.888 36.5278 13.232C37.0318 12.568 37.6918 12.236 38.5078 12.236C39.3238 12.236 39.9798 12.568 40.4758 13.232C40.9798 13.888 41.2318 14.864 41.2318 16.16C41.2318 17.456 40.9798 18.444 40.4758 19.124C39.9798 19.804 39.3238 20.144 38.5078 20.144ZM38.5078 18.776C38.7078 18.776 38.8878 18.704 39.0478 18.56C39.2078 18.408 39.3318 18.144 39.4198 17.768C39.5158 17.392 39.5638 16.856 39.5638 16.16C39.5638 15.464 39.5158 14.932 39.4198 14.564C39.3318 14.196 39.2078 13.944 39.0478 13.808C38.8878 13.672 38.7078 13.604 38.5078 13.604C38.3158 13.604 38.1398 13.672 37.9798 13.808C37.8198 13.944 37.6918 14.196 37.5958 14.564C37.4998 14.932 37.4518 15.464 37.4518 16.16C37.4518 16.856 37.4998 17.392 37.5958 17.768C37.6918 18.144 37.8198 18.408 37.9798 18.56C38.1398 18.704 38.3158 18.776 38.5078 18.776Z" fill="white"/>
</svg>
